<svg width="1811" height="495" viewBox="0 0 1811 495" fill="none" xmlns="http://www.w3.org/2000/svg">
<path d="M959.705 344.532C952.918 347.012 948.35 351.057 945.87 356.539C942.608 363.717 942.738 369.851 946.393 376.899L949.264 382.772L944.043 386.687C936.082 392.691 932.689 400.391 933.211 411.093C933.863 422.187 938.301 429.234 947.959 434.194C953.44 437.065 956.181 437.587 965.578 437.587C976.802 437.587 982.153 435.89 991.941 429.495C995.596 427.277 995.596 427.277 1000.56 432.106C1004.73 436.152 1006.43 436.935 1011.26 436.935H1017L1008.91 428.712L1000.69 420.49L1003.95 414.617C1007.34 408.613 1011.26 395.562 1011.26 390.342C1011.26 387.731 1010.6 387.34 1006.69 387.34C1004.21 387.34 1002.12 387.47 1002.12 387.731C1002.12 391.386 998.597 404.829 996.77 408.613L994.16 413.573L976.932 397.128C967.405 387.992 958.4 378.465 956.833 375.855C953.701 370.765 952.918 362.804 955.137 358.497C958.922 351.58 973.931 349.883 984.633 355.364C988.156 357.192 991.158 358.627 991.419 358.627C991.55 358.627 991.68 356.539 991.68 353.929C991.68 349.752 991.158 349.1 985.546 346.62C978.368 343.488 965.317 342.444 959.705 344.532ZM972.756 405.612C985.546 418.532 988.026 421.534 986.46 422.709C976.019 430.017 961.14 431.323 951.874 425.841C946.131 422.578 942.086 415.531 942.086 408.744C942.086 401.044 949.786 389.95 955.137 389.95C956.181 389.95 964.142 396.998 972.756 405.612Z" fill="black"/>
<path d="M520.792 346.359C515.441 350.144 517.79 357.322 524.446 357.322C528.623 357.322 530.972 355.103 530.972 351.319C530.972 348.708 526.795 344.271 524.446 344.271C524.055 344.271 522.358 345.184 520.792 346.359Z" fill="black"/>
<path d="M1267.97 345.054C1267.45 345.576 1267.06 363.978 1267.06 385.904C1267.06 421.273 1267.32 426.363 1269.41 430.409C1272.02 435.629 1276.33 438.24 1282.46 438.24C1288.47 438.24 1291.86 436.152 1291.86 432.367C1291.86 429.365 1291.34 429.104 1286.12 429.104C1282.98 429.104 1279.85 428.321 1278.94 427.407C1278.02 426.233 1277.37 412.398 1277.24 385.252L1276.85 344.923L1272.93 344.532C1270.72 344.271 1268.5 344.532 1267.97 345.054Z" fill="black"/>
<path d="M853.337 363.065V372.984H846.159C839.111 372.984 838.981 372.984 838.981 376.899C838.981 380.814 839.111 380.814 846.159 380.814H853.337V401.957C853.337 420.229 853.729 424.014 855.947 428.843C858.819 435.238 864.3 438.24 872.784 438.24C881.658 438.24 884.66 436.413 884.66 431.062C884.66 426.885 884.399 426.494 882.18 427.799C877.874 430.017 869.26 429.365 866.388 426.494C864.039 424.144 863.778 422.187 863.778 403.654C863.778 392.56 863.778 383.033 863.778 382.38C863.778 381.858 868.738 381.336 875.002 381.075L886.096 380.684L885.704 377.16C885.313 373.636 885.182 373.636 874.219 372.984L863.126 372.331V363.195V354.059L858.297 353.668L853.337 353.276V363.065Z" fill="black"/>
<path d="M1488.93 363.195V372.984H1481.1C1473.27 372.984 1473.27 372.984 1473.27 376.899C1473.27 380.553 1473.4 380.684 1480.84 381.075L1488.28 381.467L1488.93 404.307C1489.45 423.231 1489.98 427.929 1491.93 430.801C1495.46 436.152 1501.33 438.631 1509.29 437.979C1517.51 437.326 1520.12 435.499 1519.34 431.192C1518.69 428.19 1518.3 428.06 1511.77 428.712C1505.51 429.365 1504.46 429.104 1501.46 426.102L1497.94 422.578L1498.33 402.088L1498.72 381.467L1509.55 381.075L1520.26 380.684V376.899V372.984H1509.16H1498.07V363.195V353.407H1493.5H1488.93V363.195Z" fill="black"/>
<path d="M1623.36 363.195V372.984H1615.53C1607.7 372.984 1607.7 372.984 1607.7 376.899C1607.7 380.553 1607.83 380.684 1615.27 381.075L1622.71 381.467L1623.36 404.307C1623.75 419.707 1624.53 428.19 1625.71 430.148C1629.62 436.935 1641.37 440.328 1649.98 436.935C1652.59 436.021 1653.38 434.716 1653.38 431.845V428.06L1645.81 428.712C1638.63 429.365 1637.98 429.234 1635.24 425.841C1632.63 422.317 1632.5 421.012 1632.76 401.827L1633.15 381.467L1643.98 381.075L1654.68 380.684V376.899V372.984H1643.59H1632.5V363.195V353.407H1627.93H1623.36V363.195Z" fill="black"/>
<path d="M576.26 373.506C573.649 374.419 569.342 376.899 566.863 378.726L562.295 382.25V377.682C562.295 373.245 562.034 372.984 557.727 372.984H553.159L553.42 404.568L553.811 436.282L558.118 436.674L562.295 437.065V415.531C562.295 394.257 562.295 393.996 565.688 389.95C572.736 381.597 586.178 378.335 594.792 382.772C601.579 386.165 602.754 391.255 602.754 415.27V436.935H607.321H611.889V413.051C611.889 386.165 610.584 381.206 602.623 375.463C597.272 371.679 583.96 370.634 576.26 373.506Z" fill="black"/>
<path d="M719.562 374.028C713.297 377.029 706.772 383.425 703.64 389.82C700.507 396.215 700.377 413.703 703.509 419.446C706.902 425.58 713.558 431.845 720.215 434.846C728.045 438.37 743.185 438.501 751.929 435.238C757.541 433.019 758.063 432.497 758.063 428.451V424.144L751.277 426.755C741.227 430.54 727.393 429.626 720.867 424.536C715.255 420.36 711.079 413.964 711.079 409.788V406.917H736.659H762.24L761.718 399.869C760.934 390.472 755.975 381.075 749.319 376.377C742.141 371.417 727.654 370.243 719.562 374.028ZM743.576 383.164C747.883 386.296 751.277 391.125 752.321 395.432L753.104 399.086H732.091C709.121 399.086 708.991 399.086 712.906 391.516C718.387 380.814 734.44 376.507 743.576 383.164Z" fill="black"/>
<path d="M788.734 373.636C780.772 376.377 777.64 380.945 777.64 389.167C777.64 399.739 783.644 404.437 802.829 409.005C813.139 411.354 819.404 415.27 819.404 419.185C819.404 420.229 817.968 422.709 816.272 424.797C813.531 428.06 812.095 428.451 803.612 428.843C794.476 429.365 788.081 427.929 777.249 423.231C775.16 422.317 774.899 422.839 775.291 427.277C775.682 432.236 775.943 432.497 782.73 434.716C806.614 442.677 828.54 435.368 828.54 419.446C828.54 409.527 821.884 404.437 802.698 399.739C791.996 397.128 786.776 393.735 786.776 389.298C786.776 380.031 804.004 377.029 819.274 383.555C822.406 384.86 825.147 386.035 825.538 386.035C825.799 386.035 825.93 383.816 825.669 381.075C825.277 376.507 824.886 376.116 818.751 374.028C810.79 371.287 795.912 371.156 788.734 373.636Z" fill="black"/>
<path d="M1089.7 373.506C1087.35 374.289 1083.04 377.03 1080.3 379.248L1075.21 383.555V378.335C1075.21 373.114 1075.08 372.984 1070.64 372.984H1066.07V404.959V436.935H1070.64H1075.21V416.183C1075.21 395.432 1075.21 395.301 1078.73 391.125C1082.26 386.948 1093.48 380.814 1097.79 380.814C1099.48 380.814 1100.01 379.77 1100.01 376.246C1100.01 372.331 1099.61 371.679 1097.13 371.809C1095.44 371.809 1092.17 372.592 1089.7 373.506Z" fill="black"/>
<path d="M1130.15 373.506C1118.02 377.813 1110.06 390.081 1110.06 404.307C1110.19 415.4 1113.19 422.578 1120.63 429.104C1131.07 438.37 1149.21 440.85 1161.87 434.846C1165.91 432.889 1166.57 431.845 1166.57 428.19V423.753L1162.39 425.972C1155.47 429.495 1140.86 429.887 1133.68 426.755C1127.02 423.883 1121.28 417.227 1120.1 411.093L1119.32 406.917H1145.68H1172.18L1171.27 400.13C1168.79 382.25 1157.95 371.678 1141.77 371.809C1137.85 371.809 1132.63 372.592 1130.15 373.506ZM1152.86 382.903C1156.91 385.513 1161.35 392.56 1161.35 396.345C1161.35 399.086 1160.95 399.086 1140.46 399.086C1126.89 399.086 1119.58 398.564 1119.58 397.781C1119.58 395.562 1124.41 386.687 1126.63 384.86C1133.03 379.509 1146.21 378.465 1152.86 382.903Z" fill="black"/>
<path d="M1198.54 374.028C1192.41 376.116 1192.02 376.507 1191.62 381.075L1191.23 385.904L1197.5 383.164C1205.59 379.509 1218.77 379.248 1225.04 382.641C1229.87 385.121 1233.13 391.386 1233.13 397.911C1233.13 401.305 1232.74 401.827 1230.91 401.044C1222.56 397.52 1218.38 396.606 1210.29 396.476C1197.89 396.476 1190.58 400 1186.53 408.222C1182.75 415.4 1182.75 418.924 1186.27 426.233C1188.62 430.931 1190.45 432.628 1196.32 435.368C1202.2 437.979 1204.81 438.501 1210.81 437.848C1218.51 437.196 1227.39 433.541 1230.39 429.887C1232.61 427.277 1234.43 427.146 1234.43 429.626C1234.43 434.846 1248.27 439.545 1251.01 435.238C1253.23 431.584 1252.7 429.104 1249.57 429.104C1243.31 429.104 1242.26 425.841 1242.26 407.047C1242.26 395.562 1241.74 388.515 1240.44 385.643C1238.22 380.162 1231.82 374.811 1225.56 372.984C1218.38 371.026 1205.98 371.548 1198.54 374.028ZM1226.73 407.047C1232.61 409.658 1233.13 410.18 1233.13 414.225C1233.13 427.929 1201.94 434.977 1195.28 422.709C1193.58 419.446 1193.58 413.964 1195.28 410.832C1198.93 403.915 1215.12 402.088 1226.73 407.047Z" fill="black"/>
<path d="M1356.07 373.375C1343.93 377.813 1336.1 390.211 1336.1 404.829C1336.1 418.532 1341.58 427.668 1353.72 434.063C1359.46 437.065 1361.94 437.587 1371.47 437.587C1386.09 437.457 1392.35 434.716 1392.35 428.321V424.014L1386.87 426.494C1376.56 431.192 1360.12 429.365 1352.68 422.839C1350.07 420.49 1345.5 411.354 1345.37 408.483C1345.37 407.308 1351.5 406.917 1371.47 406.917H1397.57V403.262C1397.57 391.516 1389.74 378.596 1379.95 374.158C1373.95 371.417 1362.6 371.026 1356.07 373.375ZM1379.43 383.555C1383.48 386.426 1385.44 389.428 1387.13 395.301L1388.31 399.086H1366.77C1352.81 399.086 1345.37 398.564 1345.37 397.781C1345.37 394.649 1350.72 386.296 1353.98 384.077C1361.94 378.857 1372.52 378.596 1379.43 383.555Z" fill="black"/>
<path d="M1423.02 374.028C1414.93 377.943 1412.58 381.336 1412.58 389.298C1412.58 400.13 1416.63 403.393 1436.86 408.875C1450.69 412.529 1453.95 414.878 1453.43 420.49C1453.17 423.622 1452 425.058 1448.47 426.885C1442.08 430.148 1425.24 429.365 1417.54 425.45C1414.54 423.883 1411.67 422.578 1411.28 422.578C1410.76 422.578 1410.62 424.797 1410.89 427.407C1411.28 431.975 1411.8 432.497 1417.8 434.846C1422.37 436.543 1427.72 437.457 1435.42 437.457C1453.82 437.587 1463.48 431.323 1463.48 418.924C1463.48 414.095 1462.83 412.659 1458.78 409.005C1454.35 404.829 1451.08 403.524 1432.94 398.303C1422.89 395.432 1419.89 392.038 1422.63 386.426C1423.68 384.208 1426.16 382.12 1428.9 381.206C1434.77 379.118 1447.3 380.162 1454.74 383.425L1460.22 385.904V381.467C1460.22 374.941 1455.13 372.592 1439.99 372.07C1430.46 371.679 1427.2 372.07 1423.02 374.028Z" fill="black"/>
<path d="M1546.36 374.028C1541.01 376.116 1540.48 376.768 1540.09 381.075L1539.7 385.904L1545.97 383.033C1557.45 377.813 1575.07 380.031 1578.99 387.34C1580.29 389.82 1582.38 401.696 1581.47 401.696C1581.2 401.696 1577.81 400.522 1574.03 399.086C1559.8 393.735 1542.05 396.737 1535.52 405.742C1529 414.748 1532.91 429.626 1543.09 434.846C1553.27 440.197 1572.59 437.457 1578.86 429.887C1581.07 427.277 1582.9 427.146 1582.9 429.626C1582.9 433.15 1589.56 437.065 1594.52 436.674C1598.56 436.282 1599.21 435.76 1599.61 432.628C1600 429.887 1599.48 429.104 1597.39 429.104C1591.78 429.104 1590.73 426.102 1590.73 408.483C1590.73 399.347 1590.08 389.689 1589.43 387.079C1587.73 381.336 1580.81 374.941 1574.16 373.114C1566.72 371.026 1553.01 371.548 1546.36 374.028ZM1575.07 407.178C1579.64 409.527 1581.07 410.963 1581.33 413.964C1582.77 425.972 1555.1 434.455 1545.44 424.927C1539.44 418.924 1541.66 408.874 1549.62 405.481C1555.23 403.262 1569.07 404.176 1575.07 407.178Z" fill="black"/>
<path d="M1683.66 375.072C1676.09 378.857 1669.69 386.426 1667.6 394.518C1665.38 402.74 1666.82 415.009 1671 421.926C1679.35 436.282 1702.45 442.547 1718.37 434.716C1722.29 432.889 1723.33 431.584 1723.59 428.06C1723.85 425.841 1723.72 423.883 1723.46 423.883C1723.07 423.883 1720.33 425.058 1717.2 426.494C1709.24 430.018 1696.58 430.018 1688.88 426.363C1683 423.492 1677.78 416.966 1676.35 410.441L1675.56 406.917H1701.67H1727.77V401.174C1727.77 397.259 1726.46 392.822 1723.59 387.079C1719.81 379.901 1718.37 378.335 1712.24 375.202C1702.71 370.504 1693.05 370.373 1683.66 375.072ZM1709.37 383.164C1713.67 386.296 1717.07 391.125 1718.11 395.432L1718.89 399.086H1697.36H1675.83L1677.13 394.518C1678.83 389.298 1684.96 383.033 1690.57 380.945C1695.79 379.118 1705.45 380.292 1709.37 383.164Z" fill="black"/>
<path d="M519.748 374.68C519.487 375.594 519.356 389.82 519.487 406.264L519.878 436.282H524.446H529.014L529.406 404.568L529.667 372.984H525.099C522.488 372.984 520.139 373.767 519.748 374.68Z" fill="black"/>
<path d="M627.942 379.77C629.639 383.555 636.295 398.042 642.56 411.876L654.175 437.065L658.613 436.674L663.181 436.282L677.276 405.22C685.107 388.123 691.502 373.897 691.502 373.636C691.502 373.245 689.283 372.984 686.542 372.984H681.583L670.62 397.781C664.486 411.354 659.135 422.578 658.743 422.578C658.352 422.578 653.001 411.615 646.867 398.042L635.904 373.636L630.422 373.245L624.941 372.853L627.942 379.77Z" fill="black"/>
<path d="M1030.83 192.746C1030.83 242.21 1031.36 269.487 1032.27 274.055C1035.4 288.803 1044.8 299.636 1056.81 302.115C1062.42 303.421 1098.18 303.16 1108.36 301.985L1115.67 301.071V282.017V262.962L1100.14 263.875C1082.65 264.919 1075.21 263.614 1071.95 259.046C1070.38 256.697 1069.99 250.955 1069.99 224.2V192.224H1092.44H1115.01L1115.41 175.91L1115.8 159.596H1093.22H1070.64L1069.99 139.367L1069.34 119.137L1050.15 118.746L1030.83 118.354V192.746Z" fill="#0C2A53"/>
<path d="M573.388 159.596C544.153 165.991 524.185 184.524 517.79 211.148C515.441 221.067 515.702 241.297 518.443 251.477C528.884 291.674 573.91 312.426 623.244 299.766C650.129 292.98 668.401 274.316 673.883 248.344C677.798 229.551 675.84 212.584 668.01 196.009C656.003 171.081 630.292 157.508 595.575 157.769C587.745 157.769 577.695 158.682 573.388 159.596ZM616.327 196.139C624.81 199.794 629.9 204.492 633.685 212.192C640.341 225.766 637.861 246.517 628.464 256.567C617.371 268.443 587.745 271.445 571.17 262.44C559.423 256.045 554.464 246.778 554.464 230.986C554.464 217.413 557.074 210.104 564.383 203.318C573.649 194.704 580.305 192.877 598.186 193.399C606.799 193.66 612.933 194.573 616.327 196.139Z" fill="#0C2A53"/>
<path d="M710.687 159.988L691.502 160.379L691.763 231.769L692.155 303.16L711.34 303.551L730.525 303.943L730.917 261.787C731.439 224.852 731.7 218.849 733.918 213.237C739.008 199.533 751.016 192.616 769.679 192.485C785.471 192.355 795.912 197.053 801.393 206.58C804.265 211.67 804.395 212.845 805.048 257.48L805.7 303.16L825.016 303.551L844.201 303.943V260.221C844.201 202.143 842.113 191.18 827.626 175.78C816.663 164.033 802.568 158.943 780.903 158.943C760.673 158.943 748.927 163.12 738.095 173.952C734.832 177.215 731.83 179.825 731.439 179.825C731.047 179.825 730.656 175.257 730.395 169.645L730.003 159.596L710.687 159.988Z" fill="#0C2A53"/>
<path d="M913.373 161.032C887.531 166.513 869.521 183.61 862.865 208.93C859.993 219.762 860.124 242.993 862.995 254.087C869.129 277.971 886.748 294.937 911.285 300.549C945.609 308.38 984.894 300.158 1000.95 281.886C1005.65 276.535 1012.17 263.223 1012.82 257.611L1013.21 253.956L994.943 254.087L976.802 254.348L972.234 258.785C960.879 270.14 930.078 273.142 913.242 264.528C907.108 261.396 901.888 254.87 899.669 247.039L897.842 241.166H955.659H1013.61L1014.39 235.554C1015.43 228.376 1013.35 212.453 1010.08 202.926C1003.03 182.697 983.85 166.513 960.227 160.901C949.786 158.421 924.858 158.552 913.373 161.032ZM961.401 197.445C967.927 200.968 974.714 209.191 974.714 213.498C974.714 214.672 964.925 215.064 937.518 215.064C912.459 215.064 900.322 214.672 900.322 213.759C900.322 211.148 903.976 205.275 908.022 201.49C914.809 194.965 923.683 192.746 940.128 193.268C953.049 193.66 955.137 194.051 961.401 197.445Z" fill="#0C2A53"/>
<path d="M1181.45 161.554C1170.35 164.425 1157.95 170.429 1151.69 176.041C1144.77 182.044 1136.94 194.704 1133.94 204.492C1132.37 209.191 1130.81 218.718 1130.41 225.505C1128.98 249.127 1135.77 270.401 1148.82 283.322C1163.04 297.548 1179.36 302.899 1208.33 302.899C1229.21 302.768 1240.96 300.549 1254.66 293.893C1268.24 287.237 1279.72 272.62 1282.2 259.177L1282.98 254.348L1264.97 253.956L1246.83 253.565L1241.61 259.046C1234.43 266.355 1225.3 269.096 1207.03 268.965C1195.67 268.965 1192.15 268.443 1186.4 265.964C1176.88 261.787 1171 254.87 1168.39 244.429L1167.61 241.166L1225.43 240.905L1283.38 240.514L1283.77 229.812C1284.55 208.93 1277.76 191.833 1263.93 178.781C1254.66 170.168 1241.74 163.381 1229.34 160.771C1216.81 158.16 1192.8 158.552 1181.45 161.554ZM1225.04 194.834C1232.87 197.184 1240.57 203.448 1243.05 209.452C1244.09 211.801 1244.87 214.02 1244.87 214.411C1244.87 214.803 1228.17 215.064 1207.68 215.064C1166.18 215.064 1167.61 215.455 1173.74 206.189C1179.62 197.184 1190.06 193.138 1207.16 193.007C1213.68 192.877 1221.12 193.66 1225.04 194.834Z" fill="#0C2A53"/>
<path d="M1343.28 161.423C1327.49 165.861 1315.35 175.649 1307.91 189.744C1301.26 202.274 1299.17 212.192 1299.17 231.378C1299.17 246.256 1299.69 249.65 1302.69 258.785C1304.52 264.528 1307.91 271.967 1310 275.36C1325.27 299.505 1354.64 308.641 1390.79 300.419C1401.1 298.2 1406.97 295.068 1414.93 288.151L1421.07 282.669V293.241V303.812H1440.64H1460.22V232.161V160.379L1440.64 159.988L1421.07 159.596V169.645C1421.07 175.258 1420.67 179.825 1420.28 179.825C1419.76 179.825 1417.28 177.607 1414.54 174.866C1408.01 168.34 1398.62 163.381 1388.31 160.901C1376.82 158.291 1353.59 158.421 1343.28 161.423ZM1395.62 194.834C1409.45 198.75 1416.89 209.321 1418.06 226.549C1419.5 247.039 1413.89 259.438 1400.44 265.703C1393.79 268.835 1391.44 269.226 1378.65 269.226C1366.38 269.226 1363.25 268.704 1357.38 266.094C1340.15 258.394 1332.06 237.512 1338.19 216.891C1344.19 196.531 1368.34 187.265 1395.62 194.834Z" fill="#0C2A53"/>
<path d="M1497.15 159.988L1478.49 160.379V232.161V303.943L1497.81 303.551L1516.99 303.16L1517.64 258.785C1518.3 212.584 1518.56 211.279 1524.43 202.926C1533.57 190.136 1566.33 188.57 1579.38 200.446C1580.81 201.621 1583.16 205.014 1584.73 207.886C1587.34 212.845 1587.47 215.325 1588.12 258.133L1588.77 303.16L1607.96 303.551L1627.01 303.943L1627.67 261.135C1627.93 233.858 1628.71 216.63 1629.75 213.628C1632.37 205.275 1636.67 200.185 1644.63 196.27C1651.29 192.877 1653.77 192.485 1663.56 192.485C1676.61 192.485 1684.05 194.965 1690.83 201.882C1698.4 209.321 1699.06 214.411 1699.06 261.657V303.812H1718.76H1738.47L1737.82 255.784C1737.43 216.76 1736.91 206.58 1735.21 200.838C1728.68 178.912 1716.15 166.252 1695.53 160.901C1684.44 158.03 1658.99 158.291 1646.46 161.423C1634.98 164.425 1631.58 166.383 1623.23 174.344L1617.1 180.086L1611.22 174.213C1600.13 163.12 1587.86 158.943 1566.2 158.943C1546.1 158.943 1536.44 162.467 1524.56 173.691L1517.64 180.217V170.298C1517.64 164.817 1517.25 160.249 1516.73 159.988C1516.08 159.727 1507.33 159.727 1497.15 159.988Z" fill="#0C2A53"/>
<path d="M207.972 185.858C200.472 135.358 120.472 171.858 98.9716 190.358C84.4717 202.834 75.0716 211.858 72.4716 227.858C65.9716 267.858 82.1238 285.358 98.9716 297.858C129.972 320.858 180.995 319.858 196.972 289.358C207.972 268.358 217.472 223.858 207.972 185.858Z" fill="#61E261"/>
<path d="M335.972 348.858C294.972 333.858 222.972 330.858 168.472 345.358C148.472 350.679 145.472 372.358 168.472 388.358C205.472 410.358 293.222 409.358 335.972 380.858C350.972 370.858 350.472 354.163 335.972 348.858Z" fill="#FBBB00"/>
<path d="M346.472 318.858C282.472 318.858 273.472 230.858 293.972 119.858C299.143 91.8579 340.472 74.858 381.472 119.858C426.396 169.165 434.472 241.358 405.472 280.858C391.472 299.927 375.472 318.858 346.472 318.858Z" fill="#4F8BF9"/>
<path d="M224.268 57.1438C172.715 68.4984 115.812 100.865 117.509 117.702C118.292 125.924 135.258 131.405 154.313 129.709C189.813 126.446 242.931 102.954 262.638 81.9412C268.511 75.6766 268.903 74.763 268.25 69.934C266.945 60.2761 260.028 55.8387 245.28 55.0556C238.755 54.7946 231.576 55.4472 224.268 57.1438Z" fill="#FA0064"/>
</svg>
